{"title":"The Flying Swords of Dragon Gate 3D 2011 HD-RMVB","uid":6914365,"size":728410820,"categoryP":"video","categoryS":"movies","magnet":"?xt=urn:btih:c3e18514a4cc0626e3a8e205ea9295013e2993f8&amp;dn=The+Flying+Swords+of+Dragon+Gate+3D+2011+HD-RMVB&amp;tr=udp%3A%2F%2Ftracker.openbittorrent.com%3A80&amp;tr=udp%3A%2F%2Fopen.demonii.com%3A1337&amp;tr=udp%3A%2F%2Ftracker.coppersurfer.tk%3A6969&amp;tr=udp%3A%2F%2Fexodus.desync.com%3A6969","seeders":1,"leechers":0,"uploader":"rcbcsk","files":-1,"time":1324973912,"description":"Format : RealMedia\nFile size : 695 MiB\nDuration : 2h 1mn\nOverall bit rate : 785 Kbps\n\nVideo\nID : 0\nFormat : RealVideo 4\nCodec ID : RV40\nCodec ID/Info : Based on AVC (H.264), Real Player 9\nDuration : 2h 1mn\nBit rate : 688 Kbps\nWidth : 1 280 pixels\nHeight : 720 pixels\nDisplay aspect ratio : 16:9\nFrame rate : 23.976 fps\nBits/(Pixel*Frame) : 0.031\nStream size : 599 MiB (86%)\n\nAudio\nID : 1\nFormat : Cooker\nCodec ID : cook\nCodec ID/Info : Based on G.722.1, Real Player 6\nDuration : 2h 1mn\nBit rate : 96.5 Kbps\nChannel(s) : 2 channels\nSampling rate : 44.1 KHz\nBit depth : 16 bits\nStream size : 84.0 MiB (12%)\n\nScreen Shots\n &lt;a href=&quot;\nhttp://img1.uploadscreenshot.com/images/orig/12/35914292041-orig.jpg&quot; rel=&quot;nofollow&quot; target=&quot;_NEW&quot;&gt;\nhttp://img1.uploadscreenshot.com/images/orig/12/35914292041-orig.jpg&lt;/a&gt;\n &lt;a href=&quot;\nhttp://img1.uploadscreenshot.com/images/orig/12/35914294358-orig.jpg&quot; rel=&quot;nofollow&quot; target=&quot;_NEW&quot;&gt;\nhttp://img1.uploadscreenshot.com/images/orig/12/35914294358-orig.jpg&lt;/a&gt;\n &lt;a href=&quot;\nhttp://img1.uploadscreenshot.com/images/orig/12/35914412991-orig.jpg&quot; rel=&quot;nofollow&quot; target=&quot;_NEW&quot;&gt;\nhttp://img1.uploadscreenshot.com/images/orig/12/35914412991-orig.jpg&lt;/a&gt;","torrent":{"xt":"urn:btih:c3e18514a4cc0626e3a8e205ea9295013e2993f8","amp;dn":"The+Flying+Swords+of+Dragon+Gate+3D+2011+HD-RMVB","amp;tr":["udp%3A%2F%2Ftracker.openbittorrent.com%3A80","udp%3A%2F%2Fopen.demonii.com%3A1337","udp%3A%2F%2Ftracker.coppersurfer.tk%3A6969","udp%3A%2F%2Fexodus.desync.com%3A6969"],"infoHash":"c3e18514a4cc0626e3a8e205ea9295013e2993f8","infoHashBuffer":{"type":"Buffer","data":[195,225,133,20,164,204,6,38,227,168,226,5,234,146,149,1,62,41,147,248]},"announce":[],"urlList":[]}}